<svg width="16" height="18" viewBox="0 0 16 18" fill="none" xmlns="http://www.w3.org/2000/svg">
<path fill-rule="evenodd" clip-rule="evenodd" d="M12.9157 9.563C12.8932 7.28418 14.7743 6.19062 14.8584 6.13648C13.801 4.5898 12.1537 4.37721 11.5667 4.3533C10.1649 4.21177 8.83179 5.17911 8.11958 5.17911C7.40934 5.17911 6.31179 4.37453 5.14947 4.39582C3.62172 4.41841 2.21322 5.28441 1.42563 6.65271C-0.161601 9.40655 1.01965 13.4881 2.56669 15.7211C3.32241 16.8147 4.22365 18.0431 5.40723 17.9993C6.54663 17.9544 6.97782 17.2612 8.35608 17.2612C9.73401 17.2612 10.121 17.9993 11.3272 17.9757C12.5536 17.9531 13.3306 16.8609 14.0813 15.7637C14.95 14.4947 15.3061 13.2676 15.3277 13.2045C15.3005 13.1922 12.9363 12.2866 12.9124 9.56399L12.9157 9.563H12.9157ZM10.6502 2.8737C11.278 2.11199 11.7023 1.05463 11.5863 -0.000732422C10.6818 0.0361395 9.58486 0.602183 8.93546 1.36291C8.35245 2.03825 7.8432 3.11453 7.97941 4.1483C8.9896 4.22705 10.021 3.63507 10.6492 2.87502L10.6502 2.8737Z" fill="black"/>
</svg>
