<svg width="20" height="21" viewBox="0 0 20 21" fill="none" xmlns="http://www.w3.org/2000/svg">
<path d="M13.3333 2.1665H6.66667C3.75 2.1665 2.5 3.83317 2.5 6.33317V14.6665C2.5 17.1665 3.75 18.8332 6.66667 18.8332H13.3333C16.25 18.8332 17.5 17.1665 17.5 14.6665V6.33317C17.5 3.83317 16.25 2.1665 13.3333 2.1665ZM6.66667 10.7082H10C10.3417 10.7082 10.625 10.9915 10.625 11.3332C10.625 11.6748 10.3417 11.9582 10 11.9582H6.66667C6.325 11.9582 6.04167 11.6748 6.04167 11.3332C6.04167 10.9915 6.325 10.7082 6.66667 10.7082ZM13.3333 15.2915H6.66667C6.325 15.2915 6.04167 15.0082 6.04167 14.6665C6.04167 14.3248 6.325 14.0415 6.66667 14.0415H13.3333C13.675 14.0415 13.9583 14.3248 13.9583 14.6665C13.9583 15.0082 13.675 15.2915 13.3333 15.2915ZM15.4167 8.20817H13.75C12.4833 8.20817 11.4583 7.18317 11.4583 5.9165V4.24984C11.4583 3.90817 11.7417 3.62484 12.0833 3.62484C12.425 3.62484 12.7083 3.90817 12.7083 4.24984V5.9165C12.7083 6.4915 13.175 6.95817 13.75 6.95817H15.4167C15.7583 6.95817 16.0417 7.2415 16.0417 7.58317C16.0417 7.92484 15.7583 8.20817 15.4167 8.20817Z" fill="#B3B3B3"/>
</svg>
