<svg width="14" height="14" viewBox="0 0 14 14" fill="none" xmlns="http://www.w3.org/2000/svg">
<path d="M6.44582 8.72116L5.36666 9.80032C5.13916 10.0278 4.77749 10.0278 4.54416 9.80616C4.47999 9.74199 4.41582 9.68366 4.35166 9.61949C3.75082 9.01283 3.20832 8.37699 2.72416 7.71199C2.24582 7.04699 1.86082 6.38199 1.58082 5.72283C1.30666 5.05783 1.16666 4.42199 1.16666 3.81533C1.16666 3.41866 1.23666 3.03949 1.37666 2.68949C1.51666 2.33366 1.73832 2.00699 2.04749 1.71533C2.42082 1.34783 2.82916 1.16699 3.26082 1.16699C3.42416 1.16699 3.58749 1.20199 3.73332 1.27199C3.88499 1.34199 4.01916 1.44699 4.12416 1.59866L5.47749 3.50616C5.58249 3.65199 5.65832 3.78616 5.71082 3.91449C5.76332 4.03699 5.79249 4.15949 5.79249 4.27033C5.79249 4.41033 5.75166 4.55033 5.66999 4.68449C5.59416 4.81866 5.48332 4.95866 5.34332 5.09866L4.89999 5.55949C4.83582 5.62366 4.80666 5.69949 4.80666 5.79283C4.80666 5.83949 4.81249 5.88033 4.82416 5.92699C4.84166 5.97366 4.85916 6.00866 4.87082 6.04366C4.97582 6.23616 5.15666 6.48699 5.41332 6.79033C5.67582 7.09366 5.95582 7.40283 6.25916 7.71199C6.31749 7.77033 6.38166 7.82866 6.43999 7.88699C6.67332 8.11449 6.67916 8.48783 6.44582 8.72116Z" fill="#38B5B5"/>
<path d="M12.8158 10.6929C12.8158 10.8563 12.7867 11.0254 12.7283 11.1888C12.7108 11.2354 12.6933 11.2821 12.67 11.3288C12.5708 11.5388 12.4425 11.7371 12.2733 11.9238C11.9875 12.2388 11.6725 12.4663 11.3167 12.6121C11.3108 12.6121 11.305 12.6179 11.2992 12.6179C10.955 12.7579 10.5817 12.8338 10.1792 12.8338C9.58417 12.8338 8.94834 12.6938 8.27751 12.4079C7.60667 12.1221 6.93584 11.7371 6.27084 11.2529C6.04334 11.0838 5.81584 10.9146 5.60001 10.7338L7.50751 8.82626C7.67084 8.94876 7.81667 9.0421 7.93917 9.10626C7.96834 9.11793 8.00334 9.13543 8.04417 9.15293C8.09084 9.17043 8.13751 9.17626 8.19001 9.17626C8.28917 9.17626 8.36501 9.14126 8.42917 9.0771L8.87251 8.6396C9.01834 8.49376 9.15834 8.38293 9.29251 8.31293C9.42667 8.23126 9.56084 8.19043 9.70667 8.19043C9.81751 8.19043 9.93417 8.21376 10.0625 8.26626C10.1908 8.31876 10.325 8.3946 10.4708 8.49376L12.4017 9.8646C12.5533 9.9696 12.6583 10.0921 12.7225 10.2379C12.7808 10.3838 12.8158 10.5296 12.8158 10.6929Z" fill="#38B5B5"/>
</svg>
