<svg width="10" height="10" viewBox="0 0 10 10" fill="none" xmlns="http://www.w3.org/2000/svg">
<path d="M4.86405 0.833252C2.56822 0.833252 0.697388 2.70409 0.697388 4.99992C0.697388 7.29575 2.56822 9.16659 4.86405 9.16659C7.15989 9.16659 9.03072 7.29575 9.03072 4.99992C9.03072 2.70409 7.15989 0.833252 4.86405 0.833252ZM6.67655 6.48742C6.61822 6.58742 6.51405 6.64159 6.40572 6.64159C6.35155 6.64159 6.29739 6.62909 6.24739 6.59575L4.95572 5.82492C4.63489 5.63325 4.39739 5.21242 4.39739 4.84159V3.13325C4.39739 2.96242 4.53905 2.82075 4.70989 2.82075C4.88072 2.82075 5.02239 2.96242 5.02239 3.13325V4.84159C5.02239 4.99159 5.14739 5.21242 5.27655 5.28742L6.56822 6.05825C6.71822 6.14575 6.76822 6.33742 6.67655 6.48742Z" fill="#38B5B5"/>
</svg>
