<svg width="20" height="20" viewBox="0 0 20 20" fill="none" xmlns="http://www.w3.org/2000/svg">
<path d="M13.0084 4.59189V13.0586C13.0084 13.3919 12.9084 13.7169 12.725 13.9919L10.45 17.3752C10.0917 17.9169 9.20003 18.3002 8.4417 18.0169C7.62503 17.7419 7.08336 16.8252 7.25836 16.0086L7.69169 13.2836C7.72503 13.0336 7.65836 12.8086 7.5167 12.6336C7.37503 12.4752 7.1667 12.3752 6.9417 12.3752H3.51669C2.85836 12.3752 2.2917 12.1086 1.95836 11.6419C1.6417 11.1919 1.58336 10.6086 1.79169 10.0169L3.8417 3.77522C4.10003 2.74189 5.22503 1.90022 6.3417 1.90022H9.5917C10.15 1.90022 10.9334 2.09189 11.2917 2.45022L12.3584 3.27522C12.7667 3.58356 13.0084 4.07522 13.0084 4.59189Z" fill="#292D32"/>
<path d="M15.6583 14.6831H16.5166C17.8083 14.6831 18.3333 14.1831 18.3333 12.9498V4.56644C18.3333 3.3331 17.8083 2.8331 16.5166 2.8331H15.6583C14.3666 2.8331 13.8416 3.3331 13.8416 4.56644V12.9498C13.8416 14.1831 14.3666 14.6831 15.6583 14.6831Z" fill="#292D32"/>
</svg>
