<svg width="20" height="20" viewBox="0 0 20 20" fill="none" xmlns="http://www.w3.org/2000/svg">
<path d="M13.7667 4.70844L11.1833 2.70844C10.85 2.37511 10.1 2.20844 9.6 2.20844H6.43333C5.43333 2.20844 4.35 2.95844 4.1 3.95844L2.1 10.0418C1.68333 11.2084 2.43333 12.2084 3.68333 12.2084H7.01666C7.51666 12.2084 7.93333 12.6251 7.85 13.2084L7.43333 15.8751C7.26666 16.6251 7.76666 17.4584 8.51666 17.7084C9.18333 17.9584 10.0167 17.6251 10.35 17.1251L13.7667 12.0418" stroke="#5C5C5C" stroke-width="1.5" stroke-miterlimit="10"/>
<path d="M18.0167 4.7085V12.8752C18.0167 14.0418 17.5167 14.4585 16.35 14.4585H15.5167C14.35 14.4585 13.85 14.0418 13.85 12.8752V4.7085C13.85 3.54183 14.35 3.12516 15.5167 3.12516H16.35C17.5167 3.12516 18.0167 3.54183 18.0167 4.7085Z" stroke="#5C5C5C" stroke-width="1.5" stroke-linecap="round" stroke-linejoin="round"/>
</svg>
