<svg width="14" height="14" viewBox="0 0 14 14" fill="none" xmlns="http://www.w3.org/2000/svg">
<path d="M12.25 12.8335H1.75C1.51083 12.8335 1.3125 12.6352 1.3125 12.396C1.3125 12.1568 1.51083 11.9585 1.75 11.9585H12.25C12.4892 11.9585 12.6875 12.1568 12.6875 12.396C12.6875 12.6352 12.4892 12.8335 12.25 12.8335Z" fill="white"/>
<path d="M11.095 2.03013C9.96333 0.898466 8.85499 0.869299 7.69416 2.03013L6.98833 2.73597C6.92999 2.7943 6.90666 2.88763 6.92999 2.9693C7.37333 4.51513 8.60999 5.7518 10.1558 6.19513C10.1792 6.20097 10.2025 6.2068 10.2258 6.2068C10.29 6.2068 10.3483 6.18347 10.395 6.1368L11.095 5.43097C11.6725 4.8593 11.9525 4.30513 11.9525 3.74513C11.9583 3.16763 11.6783 2.60763 11.095 2.03013Z" fill="white"/>
<path d="M9.10583 6.72596C8.93666 6.6443 8.77333 6.56263 8.61583 6.4693C8.48749 6.39346 8.36499 6.3118 8.24249 6.2243C8.14333 6.16013 8.02666 6.0668 7.91583 5.97346C7.90416 5.96763 7.86333 5.93263 7.81666 5.88596C7.62416 5.72263 7.40833 5.51263 7.21583 5.2793C7.19833 5.26763 7.16916 5.2268 7.12833 5.1743C7.06999 5.1043 6.97083 4.98763 6.88333 4.85346C6.81333 4.76596 6.73166 4.63763 6.65583 4.5093C6.56249 4.3518 6.48083 4.1943 6.39916 4.03096C6.29208 3.80152 5.99094 3.73335 5.81189 3.9124L2.53166 7.19263C2.45583 7.26846 2.38583 7.4143 2.36833 7.51346L2.05333 9.74763C1.99499 10.1443 2.10583 10.5176 2.35083 10.7685C2.56083 10.9726 2.85249 11.0835 3.16749 11.0835C3.23749 11.0835 3.30749 11.0776 3.37749 11.066L5.61749 10.751C5.72249 10.7335 5.86833 10.6635 5.93833 10.5876L9.22397 7.30198C9.39944 7.12652 9.33351 6.82463 9.10583 6.72596Z" fill="white"/>
</svg>
