<svg width="14" height="14" viewBox="0 0 14 14" fill="none" xmlns="http://www.w3.org/2000/svg">
<path d="M9.91667 12.3958H4.08333C1.95417 12.3958 0.729168 11.1708 0.729168 9.04163V4.95829C0.729168 2.82913 1.95417 1.60413 4.08333 1.60413H9.91667C12.0458 1.60413 13.2708 2.82913 13.2708 4.95829V9.04163C13.2708 11.1708 12.0458 12.3958 9.91667 12.3958ZM4.08333 2.47913C2.415 2.47913 1.60417 3.28996 1.60417 4.95829V9.04163C1.60417 10.71 2.415 11.5208 4.08333 11.5208H9.91667C11.585 11.5208 12.3958 10.71 12.3958 9.04163V4.95829C12.3958 3.28996 11.585 2.47913 9.91667 2.47913H4.08333Z" fill="#38B5B5"/>
<path d="M6.99987 7.50748C6.50987 7.50748 6.01404 7.35582 5.63487 7.04665L3.80904 5.58832C3.62237 5.43665 3.58738 5.16248 3.73904 4.97582C3.89071 4.78915 4.16488 4.75415 4.35154 4.90582L6.17737 6.36415C6.6207 6.71998 7.3732 6.71998 7.81654 6.36415L9.64237 4.90582C9.82904 4.75415 10.109 4.78332 10.2549 4.97582C10.4065 5.16248 10.3774 5.44248 10.1849 5.58832L8.35904 7.04665C7.98571 7.35582 7.48987 7.50748 6.99987 7.50748Z" fill="#38B5B5"/>
</svg>
