<svg width="14" height="14" viewBox="0 0 14 14" fill="none" xmlns="http://www.w3.org/2000/svg">
<path d="M5.52418 8.91329C5.41335 8.91329 5.30252 8.87245 5.21502 8.78495C4.73668 8.30662 4.47418 7.67079 4.47418 6.99995C4.47418 5.60579 5.60585 4.47412 7.00002 4.47412C7.67085 4.47412 8.30668 4.73662 8.78502 5.21495C8.86668 5.29662 8.91335 5.40745 8.91335 5.52412C8.91335 5.64079 8.86668 5.75162 8.78502 5.83329L5.83335 8.78495C5.74585 8.87245 5.63502 8.91329 5.52418 8.91329ZM7.00002 5.34912C6.09002 5.34912 5.34918 6.08995 5.34918 6.99995C5.34918 7.29162 5.42502 7.57162 5.56502 7.81662L7.81668 5.56495C7.57168 5.42495 7.29168 5.34912 7.00002 5.34912Z" fill="#FFA1AC"/>
<path d="M3.26667 10.7974C3.1675 10.7974 3.0625 10.7624 2.98083 10.6924C2.35667 10.1616 1.79667 9.50828 1.31833 8.74995C0.7 7.78745 0.7 6.21828 1.31833 5.24995C2.74167 3.02161 4.8125 1.73828 7 1.73828C8.28333 1.73828 9.54917 2.18161 10.6575 3.01578C10.85 3.16161 10.8908 3.43578 10.745 3.62828C10.5992 3.82078 10.325 3.86161 10.1325 3.71578C9.17583 2.99245 8.09083 2.61328 7 2.61328C5.11583 2.61328 3.31333 3.74495 2.05333 5.72245C1.61583 6.40495 1.61583 7.59495 2.05333 8.27745C2.49083 8.95995 2.9925 9.54911 3.54667 10.0274C3.7275 10.1849 3.75083 10.4591 3.59333 10.6458C3.51167 10.7449 3.38917 10.7974 3.26667 10.7974Z" fill="#FFA1AC"/>
<path d="M7 12.2617C6.22416 12.2617 5.46583 12.1042 4.73666 11.795C4.515 11.7017 4.41 11.445 4.50333 11.2234C4.59666 11.0017 4.85333 10.8967 5.075 10.99C5.69333 11.2525 6.34083 11.3867 6.99416 11.3867C8.87833 11.3867 10.6808 10.255 11.9408 8.27754C12.3783 7.59504 12.3783 6.40504 11.9408 5.72254C11.76 5.43671 11.5617 5.16254 11.3517 4.90587C11.2 4.71921 11.2292 4.44504 11.4158 4.28754C11.6025 4.13587 11.8767 4.15921 12.0342 4.35171C12.2617 4.63171 12.4833 4.93504 12.6817 5.25004C13.3 6.21254 13.3 7.78171 12.6817 8.75004C11.2583 10.9784 9.1875 12.2617 7 12.2617Z" fill="#FFA1AC"/>
<path d="M7.40251 9.49079C7.19834 9.49079 7.01167 9.34496 6.97084 9.13496C6.92417 8.89579 7.08167 8.66829 7.32084 8.62746C7.96251 8.51079 8.49917 7.97412 8.61584 7.33246C8.66251 7.09329 8.89001 6.94162 9.12917 6.98246C9.36834 7.02912 9.52584 7.25662 9.47917 7.49579C9.29251 8.50496 8.48751 9.30412 7.48417 9.49079C7.45501 9.48496 7.43167 9.49079 7.40251 9.49079Z" fill="#FFA1AC"/>
<path d="M1.16666 13.2708C1.05583 13.2708 0.944996 13.23 0.857496 13.1425C0.68833 12.9733 0.68833 12.6933 0.857496 12.5242L5.215 8.16667C5.38416 7.9975 5.66416 7.9975 5.83333 8.16667C6.0025 8.33584 6.0025 8.61584 5.83333 8.785L1.47583 13.1425C1.38833 13.23 1.2775 13.2708 1.16666 13.2708Z" fill="#FFA1AC"/>
<path d="M8.47584 5.96175C8.365 5.96175 8.25417 5.92092 8.16667 5.83342C7.9975 5.66425 7.9975 5.38425 8.16667 5.21509L12.5242 0.857588C12.6933 0.688421 12.9733 0.688421 13.1425 0.857588C13.3117 1.02675 13.3117 1.30675 13.1425 1.47592L8.785 5.83342C8.6975 5.92092 8.58667 5.96175 8.47584 5.96175Z" fill="#FFA1AC"/>
</svg>
