<svg width="30" height="30" viewBox="0 0 30 30" fill="none" xmlns="http://www.w3.org/2000/svg">
<rect x="0.5" y="0.5" width="29" height="29" rx="7.5" fill="url(#paint0_linear_533_11972)" fill-opacity="0.5" stroke="#FFDADD"/>
<path d="M23.0001 15.5001C23.0001 11.3578 19.6421 8 15.5001 8C11.3581 8 8 11.3578 8 15.5001C8 19.2434 10.7428 22.3464 14.3281 22.909V17.6681H12.4237V15.5001H14.3281V13.8478C14.3281 11.968 15.448 10.9298 17.1609 10.9298C17.9815 10.9298 18.8398 11.0778 18.8398 11.0778V12.9233H17.8942C16.9623 12.9233 16.672 13.5016 16.672 14.0946V15.5015H18.7519L18.4195 17.6696H16.6711V22.909C20.2573 22.3464 23.0001 19.2434 23.0001 15.5001Z" fill="#1877F2"/>
<path d="M18.4196 17.668L18.752 15.4999H16.6712V14.093C16.6712 13.5011 16.9615 12.9217 17.8934 12.9217H18.839V11.0777C18.839 11.0777 17.9807 10.9297 17.1601 10.9297C15.4472 10.9297 14.3273 11.9679 14.3273 13.8477V15.4999H12.4238V17.668H14.3282V22.9088C15.1048 23.0304 15.8955 23.0304 16.6721 22.9088V17.668H18.4196Z" fill="white"/>
<defs>
<linearGradient id="paint0_linear_533_11972" x1="7.41482" y1="30" x2="30" y2="7.41481" gradientUnits="userSpaceOnUse">
<stop stop-color="#FFC7CC"/>
<stop offset="1" stop-color="#94E9E8"/>
</linearGradient>
</defs>
</svg>
