<svg width="14" height="14" viewBox="0 0 14 14" fill="none" xmlns="http://www.w3.org/2000/svg">
<path d="M7.09311 6.77829C7.07561 6.77829 7.06394 6.77829 7.04644 6.77829C7.01728 6.77246 6.97644 6.77246 6.94144 6.77829C5.24977 6.72579 3.97227 5.39579 3.97227 3.75663C3.97227 2.08829 5.33144 0.729126 6.99977 0.729126C8.66811 0.729126 10.0273 2.08829 10.0273 3.75663C10.0214 5.39579 8.73811 6.72579 7.11061 6.77829C7.10477 6.77829 7.09894 6.77829 7.09311 6.77829ZM6.99977 1.60413C5.81561 1.60413 4.84728 2.57246 4.84728 3.75663C4.84728 4.92329 5.75727 5.86246 6.91811 5.90329C6.94727 5.89746 7.02894 5.89746 7.10478 5.90329C8.24811 5.85079 9.14644 4.91163 9.15227 3.75663C9.15227 2.57246 8.18394 1.60413 6.99977 1.60413Z" fill="#38B5B5"/>
<path d="M7.09894 13.1542C5.95561 13.1542 4.80644 12.8625 3.93727 12.2792C3.12644 11.7425 2.68311 11.0075 2.68311 10.2084C2.68311 9.40921 3.12644 8.66837 3.93727 8.12587C5.68727 6.96504 8.52227 6.96504 10.2606 8.12587C11.0656 8.66254 11.5148 9.39754 11.5148 10.1967C11.5148 10.9959 11.0714 11.7367 10.2606 12.2792C9.38561 12.8625 8.24227 13.1542 7.09894 13.1542ZM4.42144 8.86087C3.86144 9.23421 3.55811 9.71254 3.55811 10.2142C3.55811 10.71 3.86727 11.1884 4.42144 11.5559C5.87394 12.53 8.32394 12.53 9.77644 11.5559C10.3364 11.1825 10.6398 10.7042 10.6398 10.2025C10.6398 9.70671 10.3306 9.22837 9.77644 8.86087C8.32394 7.89254 5.87394 7.89254 4.42144 8.86087Z" fill="#38B5B5"/>
</svg>
