<svg width="19" height="18" viewBox="0 0 19 18" fill="none" xmlns="http://www.w3.org/2000/svg">
<g clip-path="url(#clip0_391_10607)">
<path fill-rule="evenodd" clip-rule="evenodd" d="M18.5 9.19998C18.5 8.45997 18.4387 7.91997 18.3062 7.35999H9.68369V10.6999H14.7449C14.6429 11.53 14.0918 12.78 12.8673 13.6199L12.8502 13.7318L15.5764 15.8015L15.7653 15.82C17.5 14.25 18.5 11.94 18.5 9.19998Z" fill="#4285F4"/>
<path fill-rule="evenodd" clip-rule="evenodd" d="M9.68368 18C12.1632 18 14.2448 17.2 15.7653 15.82L12.8673 13.6199C12.0918 14.15 11.051 14.52 9.68368 14.52C7.25512 14.52 5.19392 12.95 4.45913 10.78L4.35146 10.789L1.51663 12.939L1.47955 13.04C2.98973 15.98 6.0918 18 9.68368 18Z" fill="#34A853"/>
<path fill-rule="evenodd" clip-rule="evenodd" d="M4.45913 10.78C4.26528 10.22 4.15304 9.61997 4.15304 9C4.15304 8.37997 4.26523 7.77998 4.44894 7.22L4.44381 7.10071L1.5735 4.91614L1.4796 4.95993C0.857169 6.17995 0.500053 7.54994 0.500053 8.99995C0.500053 10.45 0.857224 11.8199 1.4796 13.0399L4.45919 10.7799" fill="#FBBC04"/>
<path fill-rule="evenodd" clip-rule="evenodd" d="M9.68368 3.47993C11.4082 3.47993 12.5714 4.20995 13.2347 4.81999L15.8265 2.33998C14.2347 0.889975 12.1632 0 9.68368 0C6.0918 0 2.98978 2.01998 1.47955 4.95996L4.44894 7.22002C5.19392 5.05003 7.25512 3.47998 9.68368 3.47998" fill="#EA4335"/>
</g>
<defs>
<clipPath id="clip0_391_10607">
<rect width="18" height="18" fill="white" transform="translate(0.5)"/>
</clipPath>
</defs>
</svg>
