<svg width="20" height="21" viewBox="0 0 20 21" fill="none" xmlns="http://www.w3.org/2000/svg">
<path d="M18.3333 2.7915H1.66666C1.32499 2.7915 1.04166 2.50817 1.04166 2.1665C1.04166 1.82484 1.32499 1.5415 1.66666 1.5415H18.3333C18.675 1.5415 18.9583 1.82484 18.9583 2.1665C18.9583 2.50817 18.675 2.7915 18.3333 2.7915Z" fill="#B3B3B3"/>
<path d="M13.8917 19.1165C13.7833 19.3332 13.5583 19.4582 13.3333 19.4582C13.2417 19.4582 13.1417 19.4332 13.0583 19.3915L10 17.8665L6.94167 19.3915C6.85833 19.4332 6.75833 19.4582 6.66667 19.4582C6.44167 19.4582 6.21667 19.3332 6.10833 19.1165C5.95 18.7998 6.075 18.4248 6.39167 18.2748L9.375 16.7832V14.6665H10.625V16.7832L13.6083 18.2748C13.925 18.4248 14.05 18.7998 13.8917 19.1165Z" fill="#B3B3B3"/>
<path d="M2.5 2.1665V12.2498C2.5 13.8332 3.33333 14.6665 4.91667 14.6665H15.0833C16.6667 14.6665 17.5 13.8332 17.5 12.2498V2.1665H2.5ZM14.15 7.64984L11.525 9.8415C11.2833 10.0415 10.975 10.1248 10.6833 10.0748C10.3833 10.0248 10.125 9.8415 9.96667 9.57484L9.09167 8.1165L6.65 10.1498C6.53333 10.2498 6.39167 10.2915 6.25 10.2915C6.075 10.2915 5.89167 10.2165 5.76667 10.0665C5.54167 9.79984 5.58333 9.40817 5.85 9.18317L8.475 6.9915C8.71667 6.7915 9.025 6.70817 9.31667 6.75817C9.61667 6.80817 9.875 6.9915 10.0333 7.25817L10.9083 8.7165L13.35 6.68317C13.6167 6.45817 14.0083 6.49984 14.2333 6.7665C14.45 7.03317 14.4167 7.42484 14.15 7.64984Z" fill="#B3B3B3"/>
</svg>
