<svg width="14" height="14" viewBox="0 0 14 14" fill="none" xmlns="http://www.w3.org/2000/svg">
<path fill-rule="evenodd" clip-rule="evenodd" d="M6.99998 13.6663C3.85728 13.6663 2.28593 13.6663 1.30963 12.69C0.333313 11.7137 0.333313 10.1423 0.333313 6.99967C0.333313 3.85697 0.333313 2.28563 1.30963 1.30932C2.28593 0.333008 3.85728 0.333008 6.99998 0.333008C10.1426 0.333008 11.714 0.333008 12.6903 1.30932C13.6666 2.28563 13.6666 3.85697 13.6666 6.99967C13.6666 10.1423 13.6666 11.7137 12.6903 12.69C11.714 13.6663 10.1426 13.6663 6.99998 13.6663ZM6.99998 4.49967C7.27611 4.49967 7.49998 4.72354 7.49998 4.99967V6.49968H8.99998C9.27611 6.49968 9.49998 6.72354 9.49998 6.99967C9.49998 7.27581 9.27611 7.49967 8.99998 7.49967H7.49998V8.99967C7.49998 9.27581 7.27611 9.49967 6.99998 9.49967C6.72385 9.49967 6.49998 9.27581 6.49998 8.99967V7.49967H4.99998C4.72384 7.49967 4.49998 7.27581 4.49998 6.99967C4.49998 6.72354 4.72384 6.49968 4.99998 6.49968H6.49998V4.99967C6.49998 4.72354 6.72385 4.49967 6.99998 4.49967Z" fill="#38B5B5"/>
</svg>
