<svg width="30" height="30" viewBox="0 0 30 30" fill="none" xmlns="http://www.w3.org/2000/svg">
<rect x="0.5" y="0.5" width="29" height="29" rx="7.5" fill="url(#paint0_linear_533_11963)" fill-opacity="0.5" stroke="#FFDADD"/>
<path d="M15 22.5C19.1421 22.5 22.5 19.1421 22.5 15C22.5 10.8579 19.1421 7.5 15 7.5C10.8579 7.5 7.5 10.8579 7.5 15C7.5 19.1421 10.8579 22.5 15 22.5Z" fill="url(#paint1_radial_533_11963)"/>
<path d="M15 22.5C19.1421 22.5 22.5 19.1421 22.5 15C22.5 10.8579 19.1421 7.5 15 7.5C10.8579 7.5 7.5 10.8579 7.5 15C7.5 19.1421 10.8579 22.5 15 22.5Z" fill="url(#paint2_radial_533_11963)"/>
<path d="M14.9688 11C13.8925 11 13.7569 11.005 13.3338 11.0237C13.0043 11.0306 12.6783 11.093 12.3697 11.2084C12.1047 11.3081 11.8648 11.4645 11.6666 11.6666C11.4646 11.8649 11.3083 12.1048 11.2084 12.3697C11.0929 12.6778 11.0304 13.0032 11.0237 13.3322C11.005 13.7566 11 13.8916 11 14.9688C11 16.0459 11.005 16.1816 11.0237 16.6047C11.0306 16.934 11.093 17.2599 11.2084 17.5684C11.3102 17.8324 11.4661 18.0722 11.6659 18.2724C11.8658 18.4727 12.1053 18.6289 12.3691 18.7312C12.6776 18.8468 13.0034 18.9093 13.3328 18.9159C13.7566 18.9347 13.8916 18.9397 14.97 18.9397C16.0484 18.9397 16.1828 18.9347 16.6066 18.9159C16.936 18.909 17.2619 18.8466 17.5706 18.7312C17.8342 18.6291 18.0736 18.4731 18.2735 18.2731C18.4733 18.0732 18.6293 17.8337 18.7312 17.57C18.8464 17.2614 18.9088 16.9356 18.9159 16.6063C18.9347 16.1831 18.9397 16.0481 18.9397 14.9697C18.9397 13.8913 18.9347 13.7566 18.9159 13.3325C18.9088 13.0034 18.8464 12.6778 18.7312 12.3694C18.6314 12.1045 18.4751 11.8646 18.2731 11.6662C18.0749 11.4642 17.835 11.3079 17.57 11.2084C17.2614 11.0929 16.9354 11.0305 16.6059 11.0237C16.1822 11.005 16.0475 11 14.9688 11ZM14.6141 11.7156H14.9688C16.0287 11.7156 16.1544 11.7191 16.5725 11.7384C16.8252 11.7411 17.0755 11.7873 17.3125 11.875C17.485 11.9387 17.641 12.0403 17.7691 12.1722C17.901 12.3002 18.0024 12.4562 18.0659 12.6287C18.1536 12.8647 18.1999 13.114 18.2025 13.3656C18.2219 13.7841 18.2259 13.9094 18.2259 14.9691C18.2259 16.0287 18.2219 16.1547 18.2025 16.5728C18.1995 16.8244 18.1533 17.0737 18.0659 17.3097C17.9996 17.4809 17.8981 17.6363 17.7681 17.766C17.6381 17.8957 17.4824 17.9967 17.3109 18.0625C17.075 18.1502 16.8257 18.1965 16.5741 18.1994C16.1556 18.2181 16.0303 18.2228 14.9703 18.2228C13.9103 18.2228 13.7828 18.2184 13.3659 18.1994C13.1143 18.1964 12.865 18.1501 12.6291 18.0625C12.4566 17.9989 12.3006 17.8975 12.1725 17.7656C12.0405 17.6376 11.9388 17.4816 11.875 17.3091C11.7875 17.0731 11.7413 16.8238 11.7384 16.5722C11.7188 16.1537 11.7156 16.0281 11.7156 14.9688C11.7156 13.9094 11.7188 13.7812 11.7384 13.3644C11.7414 13.1126 11.7876 12.8633 11.875 12.6272C11.9387 12.4547 12.0403 12.2987 12.1722 12.1706C12.3004 12.0391 12.4566 11.9381 12.6291 11.875C12.865 11.7874 13.1143 11.7411 13.3659 11.7381C13.7322 11.7212 13.8741 11.7162 14.6141 11.7159V11.7156ZM17.0891 12.375C16.9949 12.3751 16.9028 12.4031 16.8245 12.4554C16.7462 12.5078 16.6852 12.5822 16.6493 12.6693C16.6133 12.7563 16.6039 12.8521 16.6223 12.9445C16.6408 13.0368 16.6862 13.1217 16.7528 13.1882C16.8195 13.2548 16.9044 13.3001 16.9968 13.3184C17.0892 13.3367 17.1849 13.3272 17.2719 13.2911C17.3589 13.255 17.4333 13.1939 17.4855 13.1156C17.5378 13.0372 17.5657 12.9451 17.5656 12.8509C17.5656 12.7884 17.5532 12.7265 17.5293 12.6687C17.5053 12.6109 17.4702 12.5585 17.4259 12.5143C17.3817 12.4701 17.3291 12.435 17.2713 12.4111C17.2135 12.3872 17.1516 12.375 17.0891 12.375ZM14.9688 12.9312C14.5656 12.9316 14.1715 13.0515 13.8365 13.2758C13.5014 13.5001 13.2404 13.8188 13.0864 14.1914C12.9324 14.564 12.8924 14.974 12.9714 15.3693C13.0503 15.7647 13.2448 16.1278 13.5301 16.4127C13.8154 16.6976 14.1788 16.8915 14.5743 16.9699C14.9699 17.0482 15.3797 17.0076 15.7521 16.853C16.1245 16.6985 16.4427 16.437 16.6665 16.1016C16.8903 15.7662 17.0096 15.3719 17.0094 14.9688C17.0092 14.701 16.9563 14.4358 16.8536 14.1885C16.751 13.9412 16.6006 13.7165 16.4111 13.5273C16.2216 13.3381 15.9967 13.1881 15.7492 13.0858C15.5017 12.9835 15.2365 12.931 14.9688 12.9312ZM14.9688 13.6463C15.2306 13.6459 15.4867 13.7233 15.7045 13.8686C15.9224 14.0139 16.0923 14.2205 16.1926 14.4624C16.293 14.7042 16.3194 14.9704 16.2684 15.2273C16.2175 15.4841 16.0915 15.7201 15.9063 15.9053C15.7212 16.0905 15.4853 16.2166 15.2285 16.2677C14.9717 16.3188 14.7055 16.2925 14.4636 16.1923C14.2217 16.092 14.0149 15.9222 13.8696 15.7044C13.7242 15.4866 13.6467 15.2306 13.6469 14.9688C13.6471 14.6182 13.7865 14.282 14.0343 14.0341C14.2821 13.7862 14.6182 13.6467 14.9688 13.6463Z" fill="#ECECEC"/>
<defs>
<linearGradient id="paint0_linear_533_11963" x1="7.41482" y1="30" x2="30" y2="7.41481" gradientUnits="userSpaceOnUse">
<stop stop-color="#FFC7CC"/>
<stop offset="1" stop-color="#94E9E8"/>
</linearGradient>
<radialGradient id="paint1_radial_533_11963" cx="0" cy="0" r="1" gradientUnits="userSpaceOnUse" gradientTransform="translate(11.4844 23.6553) rotate(-90) scale(14.8661 13.8266)">
<stop stop-color="#FFDD55"/>
<stop offset="0.1" stop-color="#FFDD55"/>
<stop offset="0.5" stop-color="#FF543E"/>
<stop offset="1" stop-color="#C837AB"/>
</radialGradient>
<radialGradient id="paint2_radial_533_11963" cx="0" cy="0" r="1" gradientUnits="userSpaceOnUse" gradientTransform="translate(4.98742 8.58057) rotate(78.6806) scale(6.64521 27.3918)">
<stop stop-color="#3771C8"/>
<stop offset="0.128" stop-color="#3771C8"/>
<stop offset="1" stop-color="#6600FF" stop-opacity="0"/>
</radialGradient>
</defs>
</svg>
