<svg width="20" height="20" viewBox="0 0 20 20" fill="none" xmlns="http://www.w3.org/2000/svg">
<path d="M6.99164 15.4081V6.94144C6.99164 6.60811 7.09164 6.28311 7.27497 6.00811L9.54997 2.62478C9.9083 2.08311 10.8 1.69978 11.5583 1.98311C12.375 2.25811 12.9166 3.17478 12.7416 3.99144L12.3083 6.71644C12.275 6.96644 12.3416 7.19144 12.4833 7.36644C12.625 7.52478 12.8333 7.62478 13.0583 7.62478H16.4833C17.1416 7.62478 17.7083 7.89144 18.0416 8.35811C18.3583 8.80811 18.4166 9.39144 18.2083 9.98311L16.1583 16.2248C15.9 17.2581 14.775 18.0998 13.6583 18.0998H10.4083C9.84997 18.0998 9.06664 17.9081 8.7083 17.5498L7.64164 16.7248C7.2333 16.4164 6.99164 15.9248 6.99164 15.4081Z" fill="#FF7988"/>
<path d="M4.34169 5.31689H3.48335C2.19169 5.31689 1.66669 5.81689 1.66669 7.05023V15.4336C1.66669 16.6669 2.19169 17.1669 3.48335 17.1669H4.34169C5.63335 17.1669 6.15835 16.6669 6.15835 15.4336V7.05023C6.15835 5.81689 5.63335 5.31689 4.34169 5.31689Z" fill="#FF7988"/>
</svg>
