<svg width="14" height="14" viewBox="0 0 14 14" fill="none" xmlns="http://www.w3.org/2000/svg">
<path d="M10.5 6.27079C10.2608 6.27079 10.0625 6.07246 10.0625 5.83329V4.66663C10.0625 2.82913 9.54333 1.60413 7 1.60413C4.45667 1.60413 3.9375 2.82913 3.9375 4.66663V5.83329C3.9375 6.07246 3.73917 6.27079 3.5 6.27079C3.26083 6.27079 3.0625 6.07246 3.0625 5.83329V4.66663C3.0625 2.97496 3.47083 0.729126 7 0.729126C10.5292 0.729126 10.9375 2.97496 10.9375 4.66663V5.83329C10.9375 6.07246 10.7392 6.27079 10.5 6.27079Z" fill="#38B5B5"/>
<path d="M9.91667 13.2709H4.08333C1.51083 13.2709 0.729168 12.4892 0.729168 9.91671V8.75004C0.729168 6.17754 1.51083 5.39587 4.08333 5.39587H9.91667C12.4892 5.39587 13.2708 6.17754 13.2708 8.75004V9.91671C13.2708 12.4892 12.4892 13.2709 9.91667 13.2709ZM4.08333 6.27087C1.995 6.27087 1.60417 6.66754 1.60417 8.75004V9.91671C1.60417 11.9992 1.995 12.3959 4.08333 12.3959H9.91667C12.005 12.3959 12.3958 11.9992 12.3958 9.91671V8.75004C12.3958 6.66754 12.005 6.27087 9.91667 6.27087H4.08333Z" fill="#38B5B5"/>
<path d="M4.66667 9.91663C4.59084 9.91663 4.515 9.89914 4.445 9.86997C4.36917 9.84081 4.31084 9.79996 4.25251 9.74746C4.14751 9.63663 4.08334 9.4908 4.08334 9.3333C4.08334 9.25747 4.10083 9.18163 4.12999 9.11163C4.15916 9.0358 4.20001 8.97747 4.25251 8.91914C4.31084 8.86664 4.36917 8.82579 4.445 8.79663C4.655 8.70329 4.9175 8.75581 5.08083 8.91914C5.13333 8.97747 5.17418 9.04163 5.20334 9.11163C5.23251 9.18163 5.25 9.25747 5.25 9.3333C5.25 9.48497 5.18583 9.63663 5.08083 9.74746C4.97 9.85246 4.81834 9.91663 4.66667 9.91663Z" fill="#38B5B5"/>
<path d="M7 9.9167C6.84833 9.9167 6.69667 9.85253 6.58584 9.74753C6.48084 9.63669 6.41666 9.49086 6.41666 9.33336C6.41666 9.25753 6.42832 9.18169 6.46332 9.11169C6.49249 9.04169 6.53334 8.97754 6.58584 8.9192C6.72 8.78504 6.92417 8.72086 7.11083 8.76169C7.15167 8.76752 7.18667 8.77919 7.22167 8.79669C7.25667 8.80836 7.29166 8.82587 7.32666 8.84921C7.35583 8.86671 7.38499 8.89587 7.41416 8.9192C7.46666 8.97754 7.50751 9.04169 7.53667 9.11169C7.56584 9.18169 7.58333 9.25753 7.58333 9.33336C7.58333 9.49086 7.51916 9.63669 7.41416 9.74753C7.38499 9.77086 7.35583 9.79419 7.32666 9.81752C7.29166 9.84086 7.25667 9.85837 7.22167 9.87004C7.18667 9.88754 7.15167 9.8992 7.11083 9.90504C7.07583 9.91087 7.035 9.9167 7 9.9167Z" fill="#38B5B5"/>
<path d="M9.33333 9.9167C9.17583 9.9167 9.03001 9.85253 8.91917 9.74753C8.86667 9.68919 8.82583 9.62503 8.79666 9.55503C8.76749 9.48503 8.75 9.4092 8.75 9.33336C8.75 9.1817 8.81417 9.03004 8.91917 8.9192C8.94834 8.89587 8.9775 8.87254 9.00667 8.84921C9.04167 8.82587 9.07666 8.80836 9.11166 8.79669C9.14666 8.77919 9.18166 8.76752 9.21666 8.76169C9.40916 8.72086 9.6075 8.78504 9.7475 8.9192C9.8525 9.03004 9.91667 9.17586 9.91667 9.33336C9.91667 9.4092 9.89917 9.48503 9.87001 9.55503C9.84084 9.63087 9.8 9.68919 9.7475 9.74753C9.63666 9.85253 9.485 9.9167 9.33333 9.9167Z" fill="#38B5B5"/>
</svg>
