<svg width="12" height="10" viewBox="0 0 12 10" fill="none" xmlns="http://www.w3.org/2000/svg">
<path d="M8.91666 0.0419922H3.08332C1.33332 0.0419922 0.166656 0.916992 0.166656 2.95866V7.04199C0.166656 9.08366 1.33332 9.95866 3.08332 9.95866H8.91666C10.6667 9.95866 11.8333 9.08366 11.8333 7.04199V2.95866C11.8333 0.916992 10.6667 0.0419922 8.91666 0.0419922ZM9.19082 3.59449L7.36499 5.05283C6.97999 5.36199 6.48999 5.51366 5.99999 5.51366C5.50999 5.51366 5.01416 5.36199 4.63499 5.05283L2.80916 3.59449C2.62249 3.44283 2.59332 3.16283 2.73916 2.97616C2.89082 2.78949 3.16499 2.75449 3.35166 2.90616L5.17749 4.36449C5.62082 4.72033 6.37332 4.72033 6.81666 4.36449L8.64249 2.90616C8.82916 2.75449 9.10916 2.78366 9.25499 2.97616C9.40666 3.16283 9.37749 3.44283 9.19082 3.59449Z" fill="#38B5B5"/>
</svg>
