<svg width="14" height="14" viewBox="0 0 14 14" fill="none" xmlns="http://www.w3.org/2000/svg">
<path fill-rule="evenodd" clip-rule="evenodd" d="M8.31247 1.75C8.19644 1.75 8.08516 1.70391 8.00311 1.62186C7.92107 1.53981 7.87497 1.42853 7.87497 1.3125C7.87497 1.19647 7.92107 1.08519 8.00311 1.00314C8.08516 0.921094 8.19644 0.875 8.31247 0.875H12.6875C12.8035 0.875 12.9148 0.921094 12.9968 1.00314C13.0789 1.08519 13.125 1.19647 13.125 1.3125V5.6875C13.125 5.80353 13.0789 5.91481 12.9968 5.99686C12.9148 6.07891 12.8035 6.125 12.6875 6.125C12.5714 6.125 12.4602 6.07891 12.3781 5.99686C12.2961 5.91481 12.25 5.80353 12.25 5.6875V2.36863L8.6371 5.9815C9.34743 6.85054 9.69659 7.95935 9.61236 9.07859C9.52813 10.1978 9.01696 11.2419 8.18456 11.9948C7.35216 12.7478 6.26222 13.152 5.14017 13.1239C4.01811 13.0958 2.94977 12.6375 2.1561 11.8439C1.36244 11.0502 0.904168 9.98187 0.876068 8.85981C0.847967 7.73775 1.25219 6.64781 2.00513 5.81541C2.75807 4.98302 3.80214 4.47184 4.92138 4.38761C6.04063 4.30338 7.14943 4.65254 8.01847 5.36287L11.6313 1.75H8.31247ZM5.24997 5.25C4.32172 5.25 3.43148 5.61875 2.7751 6.27513C2.11872 6.9315 1.74997 7.82174 1.74997 8.75C1.74997 9.67826 2.11872 10.5685 2.7751 11.2249C3.43148 11.8813 4.32172 12.25 5.24997 12.25C6.17823 12.25 7.06847 11.8813 7.72485 11.2249C8.38123 10.5685 8.74997 9.67826 8.74997 8.75C8.74997 7.82174 8.38123 6.9315 7.72485 6.27513C7.06847 5.61875 6.17823 5.25 5.24997 5.25Z" fill="#38B5B5"/>
</svg>
