<svg width="30" height="30" viewBox="0 0 30 30" fill="none" xmlns="http://www.w3.org/2000/svg">
<rect width="30" height="30" rx="15" fill="white"/>
<path d="M15.0125 20.3312C13.5563 20.3312 12.1 20.1 10.7188 19.6375C10.1938 19.4562 9.79376 19.0875 9.61876 18.6062C9.43751 18.125 9.50001 17.5937 9.78751 17.1187L10.5063 15.925C10.6563 15.675 10.7938 15.175 10.7938 14.8812V13.075C10.7938 10.75 12.6875 8.8562 15.0125 8.8562C17.3375 8.8562 19.2313 10.75 19.2313 13.075V14.8812C19.2313 15.1687 19.3688 15.675 19.5188 15.9312L20.2313 17.1187C20.5 17.5687 20.55 18.1125 20.3688 18.6062C20.1875 19.1 19.7938 19.475 19.3 19.6375C17.925 20.1 16.4688 20.3312 15.0125 20.3312ZM15.0125 9.7937C13.2063 9.7937 11.7313 11.2625 11.7313 13.075V14.8812C11.7313 15.3375 11.5438 16.0125 11.3125 16.4062L10.5938 17.6C10.4563 17.8312 10.4188 18.075 10.5 18.2812C10.575 18.4937 10.7625 18.6562 11.0188 18.7437C13.6313 19.6187 16.4 19.6187 19.0125 18.7437C19.2375 18.6687 19.4125 18.5 19.4938 18.275C19.575 18.05 19.5563 17.8062 19.4313 17.6L18.7125 16.4062C18.475 16 18.2938 15.3312 18.2938 14.875V13.075C18.2938 11.2625 16.825 9.7937 15.0125 9.7937Z" fill="#292D32"/>
<path d="M16.175 9.96255C16.1313 9.96255 16.0875 9.9563 16.0438 9.9438C15.8625 9.8938 15.6875 9.8563 15.5188 9.8313C14.9875 9.76255 14.475 9.80005 13.9938 9.9438C13.8188 10 13.6313 9.9438 13.5125 9.81255C13.3938 9.6813 13.3563 9.4938 13.425 9.32505C13.6813 8.6688 14.3063 8.23755 15.0188 8.23755C15.7313 8.23755 16.3563 8.66255 16.6125 9.32505C16.675 9.4938 16.6438 9.6813 16.525 9.81255C16.4313 9.91255 16.3 9.96255 16.175 9.96255Z" fill="#292D32"/>
<path d="M15.0125 21.7563C14.3938 21.7563 13.7938 21.5063 13.3563 21.0688C12.9188 20.6313 12.6688 20.0313 12.6688 19.4126H13.6063C13.6063 19.7813 13.7563 20.1438 14.0188 20.4063C14.2813 20.6688 14.6438 20.8188 15.0125 20.8188C15.7875 20.8188 16.4188 20.1876 16.4188 19.4126H17.3563C17.3563 20.7063 16.3063 21.7563 15.0125 21.7563Z" fill="#292D32"/>
</svg>
