<svg width="30" height="30" viewBox="0 0 30 30" fill="none" xmlns="http://www.w3.org/2000/svg">
<rect width="30" height="30" rx="15" fill="white"/>
<path d="M19.5875 16.5562L18.9625 15.5188C18.8312 15.2875 18.7125 14.85 18.7125 14.5938V13.0125C18.7125 11.5437 17.85 10.275 16.6062 9.68125C16.2812 9.10625 15.6812 8.75 14.9937 8.75C14.3125 8.75 13.7 9.11875 13.375 9.7C12.1562 10.3062 11.3125 11.5625 11.3125 13.0125V14.5938C11.3125 14.85 11.1937 15.2875 11.0625 15.5125L10.4312 16.5562C10.1812 16.975 10.125 17.4375 10.2812 17.8625C10.4312 18.2812 10.7875 18.6063 11.25 18.7625C12.4625 19.175 13.7375 19.375 15.0125 19.375C16.2875 19.375 17.5625 19.175 18.775 18.7688C19.2125 18.625 19.55 18.2937 19.7125 17.8625C19.875 17.4312 19.8312 16.9563 19.5875 16.5562Z" fill="#292D32"/>
<path d="M16.7687 20.0063C16.5062 20.7313 15.8125 21.25 15 21.25C14.5062 21.25 14.0187 21.05 13.675 20.6938C13.475 20.5063 13.325 20.2562 13.2375 20C13.3187 20.0125 13.4 20.0187 13.4875 20.0312C13.6312 20.05 13.7812 20.0687 13.9312 20.0812C14.2875 20.1125 14.65 20.1312 15.0125 20.1312C15.3687 20.1312 15.725 20.1125 16.075 20.0812C16.2062 20.0687 16.3375 20.0625 16.4625 20.0437C16.5625 20.0312 16.6625 20.0188 16.7687 20.0063Z" fill="#292D32"/>
</svg>
