<svg width="38" height="38" viewBox="0 0 38 38" fill="none" xmlns="http://www.w3.org/2000/svg">
<path d="M7.48211 16.3067C8.71738 15.9757 9.45046 14.706 9.11948 13.4707C8.78851 12.2354 7.51881 11.5024 6.28354 11.8333C5.04826 12.1643 4.31518 13.434 4.64616 14.6693C4.97713 15.9046 6.24683 16.6376 7.48211 16.3067Z" fill="#38B4B3"/>
<path d="M11.1016 28.9454H8.28129C8.28129 28.9454 8.13285 28.9454 8.0141 28.9454C6.73754 28.8266 5.6391 27.9063 5.31254 26.6297L3.38285 19.4454C3.2641 19.0297 2.84848 18.8219 2.49223 18.911C2.0766 19.0297 1.86879 19.4453 1.95785 19.8016L3.85785 26.986C4.36254 28.8563 5.93598 30.2219 7.86566 30.3704C8.04379 30.4 8.2516 30.4 8.2516 30.4H11.0719C11.4875 30.4 11.7844 30.0735 11.8141 29.6579C11.8141 29.2422 11.5172 28.9454 11.1016 28.9454Z" fill="#38B4B3"/>
<path d="M14.4272 24.9079H10.5678C10.4788 23.4532 10.2413 21.9985 9.885 20.5438C9.85532 20.425 9.76625 20.1282 9.76625 20.0985C9.26157 18.2282 7.48032 17.0407 5.61 17.2188C5.61 17.2188 5.3725 17.2485 5.31313 17.2485C4.63032 17.4266 4.21469 18.1391 4.39282 18.8516L6.38188 26.2438C6.58969 27.075 7.30219 27.6985 8.19282 27.7579H8.37094H12.9725V33.0422C12.9725 33.8438 13.5959 34.4969 14.4272 34.4969C15.2288 34.4969 15.8819 33.8735 15.8819 33.0422V26.3625C15.8819 25.9766 15.7334 25.6204 15.4366 25.3532C15.1694 25.0563 14.7834 24.9079 14.4272 24.9079Z" fill="#38B4B3"/>
<path d="M33.2289 14.6875C33.5598 13.4522 32.8268 12.1825 31.5915 11.8515C30.3562 11.5206 29.0865 12.2536 28.7555 13.4889C28.4246 14.7242 29.1576 15.9939 30.3929 16.3249C31.6282 16.6558 32.8979 15.9228 33.2289 14.6875Z" fill="#38B4B3"/>
<path d="M26.7789 28.9454H29.5992C29.5992 28.9454 29.7477 28.9454 29.8664 28.9454C31.143 28.8266 32.2414 27.9063 32.568 26.6297L34.4977 19.4454C34.6164 19.0297 35.032 18.8219 35.3883 18.911C35.8039 19.0297 36.0117 19.4453 35.9227 19.8016L34.0227 26.986C33.518 28.8563 31.9445 30.2219 30.0148 30.3704C29.8367 30.4 29.6289 30.4 29.6289 30.4H26.8086C26.393 30.4 26.0961 30.0735 26.0664 29.6579C26.0664 29.2422 26.393 28.9454 26.7789 28.9454Z" fill="#38B4B3"/>
<path d="M23.4547 24.9079H27.3141C27.4031 23.4532 27.6406 21.9985 27.9969 20.5438C28.0266 20.425 28.1156 20.1282 28.1156 20.0985C28.6203 18.2282 30.4016 17.0407 32.2719 17.2188C32.2719 17.2188 32.5094 17.2485 32.5687 17.2485C33.2516 17.4266 33.6672 18.1391 33.4891 18.8516L31.4703 26.2438C31.2625 27.075 30.55 27.6985 29.6594 27.7579H29.4813H24.9094V33.0422C24.9094 33.8438 24.2859 34.4969 23.4547 34.4969C22.6234 34.4969 22 33.8735 22 33.0422V26.3625C22 25.9766 22.1484 25.6204 22.4453 25.3532C22.7125 25.0563 23.0984 24.9079 23.4547 24.9079Z" fill="#38B4B3"/>
<path d="M26.5414 21.0186H11.5195V22.7998H26.5414V21.0186Z" fill="#38B4B3"/>
<path d="M19.0281 14.9625C20.2086 14.9625 21.1656 14.0055 21.1656 12.825C21.1656 11.6445 20.2086 10.6875 19.0281 10.6875C17.8476 10.6875 16.8906 11.6445 16.8906 12.825C16.8906 14.0055 17.8476 14.9625 19.0281 14.9625Z" fill="#38B4B3"/>
<path d="M15.5859 20.1576V18.8811H15.5563C15.5563 18.7326 15.675 18.6139 15.8234 18.6139C15.9719 18.6139 16.0906 18.7326 16.0906 18.8811V20.1576H21.9984V18.8811H21.9688C21.9688 18.7326 22.0875 18.6139 22.2359 18.6139C22.3844 18.6139 22.5031 18.7326 22.5031 18.8811V20.1576H24.3438V18.3467C24.3438 16.8623 23.1562 15.6748 21.6719 15.6748H16.3281C14.8438 15.6748 13.6562 16.8623 13.6562 18.3467V20.1576H15.5859Z" fill="#38B4B3"/>
</svg>
