<svg width="26" height="38" viewBox="0 0 26 38" fill="none" xmlns="http://www.w3.org/2000/svg">
<path fill-rule="evenodd" clip-rule="evenodd" d="M4.12713 0.0268555H17.8459C18.9837 0.0268555 20.0222 0.488496 20.7626 1.2292C21.5135 1.97584 21.9715 3.00229 21.9715 4.12744V9.34131H20.5437V4.08811H1.42178V32.2786H20.5437V21.6126H21.9715V33.8736C21.9715 35.0047 21.5075 36.037 20.7626 36.7711C20.0103 37.5185 18.9778 37.9727 17.8459 37.9727H4.12713C2.98776 37.9727 1.94925 37.5125 1.2096 36.7711C0.457989 36.0259 0 34.9995 0 33.8736V4.1215C0 2.99041 0.463218 1.95803 1.2096 1.22252C1.96046 0.477363 2.98776 0.0268555 4.12713 0.0268555ZM26 12.1661V17.8943C26 18.2839 25.6802 18.6023 25.2872 18.6023H21.2864L19.6128 20.0815C19.4447 20.2685 19.1272 20.1528 19.1272 19.8974L19.0435 18.6023H17.8175C17.426 18.6023 17.1047 18.2832 17.1047 17.8943V12.1661C17.1047 11.7787 17.4275 11.4588 17.8175 11.4588H25.2872C25.6772 11.4588 26 11.7779 26 12.1661ZM19.3446 14.4802C19.1429 14.4802 18.9785 14.3177 18.9785 14.1173C18.9785 13.9169 19.1429 13.7536 19.3446 13.7536H24.0575C24.2592 13.7536 24.4228 13.9169 24.4228 14.1173C24.4228 14.3177 24.2592 14.4802 24.0575 14.4802H19.3446ZM19.3446 16.4173C19.1429 16.4173 18.9785 16.2548 18.9785 16.0544C18.9785 15.8533 19.1429 15.6907 19.3446 15.6907H23.1878C23.3895 15.6907 23.5532 15.8533 23.5532 16.0544C23.5532 16.2548 23.3895 16.4173 23.1878 16.4173H19.3446ZM3.35385 5.66451H5.34718C5.54592 5.66451 5.70879 5.82631 5.70879 6.02373V6.40596L6.86011 5.71869V7.88736L5.70879 7.27061V7.76787C5.70879 7.96529 5.54592 8.12635 5.34718 8.12635H3.35385C3.15437 8.12635 2.99224 7.96529 2.99224 7.76787V6.02373C2.99244 5.92852 3.0306 5.83727 3.09837 5.76994C3.16614 5.70262 3.25801 5.66471 3.35385 5.66451ZM9.25988 21.1005L11.1576 22.4142L12.9387 20.9402C12.8401 20.7903 12.7393 20.5929 12.6608 20.3873C13.452 20.9395 13.6231 22.1003 13.597 23.0384C13.5932 23.1564 13.5895 23.1905 13.5872 23.2299C13.0897 23.3405 12.7355 23.7791 12.7355 24.2853C12.7355 24.5836 12.8573 24.8545 13.0545 25.0497C13.4386 25.4312 13.9982 25.518 14.4913 25.1358C14.746 24.9376 14.9097 24.6296 14.9097 24.2838C14.9097 24.1019 14.8611 23.9379 14.7774 23.7932C14.5944 23.4785 14.3956 23.3857 14.0916 23.2351C14.0699 23.2239 14.0923 23.1779 14.096 23.0495C14.1125 22.4817 14.0721 21.8813 13.9175 21.3425C14.052 21.4122 14.1924 21.4679 14.3366 21.5147C14.8155 21.6267 15.4416 21.6379 15.999 21.7922C18.6804 22.5367 18.5265 23.5319 18.8874 26.6335C18.8493 27.0306 18.6229 27.2592 18.1768 27.2926H3.79391C3.34862 27.2592 3.12149 27.0291 3.08339 26.6335C3.2881 23.218 4.23845 21.9778 7.40851 21.5162C7.69092 21.4753 7.95764 21.4212 8.19374 21.3581C8.08241 21.695 8.0204 22.0327 8.00098 22.3251C7.87322 22.4179 7.55569 22.5263 7.45483 22.6472C7.27819 22.8563 7.12067 23.0806 6.98414 23.3174C6.96172 23.3553 6.94977 23.3983 6.94977 23.4414C6.94977 23.4755 6.98638 23.5104 6.97069 23.5401L6.94753 23.5846C6.63075 24.1977 6.42379 24.8723 6.52241 25.1633C6.56799 25.3013 6.67856 25.3919 6.84144 25.4423C7.00441 25.4846 7.17332 25.4997 7.34126 25.4869C7.40776 25.5477 7.50713 25.5937 7.59753 25.5937C7.6488 25.5937 7.69925 25.5809 7.74425 25.5565C7.78925 25.5321 7.82737 25.4969 7.8551 25.454C7.88283 25.4112 7.8993 25.3621 7.90299 25.3113C7.90667 25.2605 7.89747 25.2096 7.87621 25.1633C7.75069 24.876 7.35994 24.9532 7.31661 25.1069C7.31138 25.1239 7.31586 25.1313 7.30839 25.1447C7.28224 25.1462 7.25609 25.1477 7.22994 25.1477C7.13431 25.1477 7.03793 25.138 6.94529 25.1135C6.89075 25.0994 6.85862 25.0779 6.8519 25.0549C6.78092 24.8515 6.97442 24.2867 7.25385 23.7412C7.26506 23.719 7.27626 23.6967 7.28822 23.6752C7.3421 23.6555 7.38713 23.6173 7.41523 23.5676C7.53587 23.357 7.67514 23.1576 7.83138 22.9716C7.87994 22.9144 8.03385 22.8246 8.14891 22.7838C8.21167 22.7623 8.24828 22.746 8.29908 22.7846C8.36483 22.8335 8.42609 22.8892 8.48063 22.9508C8.64724 23.1378 8.79443 23.3434 8.91994 23.5601C8.94833 23.6091 9.01632 23.6195 9.04621 23.6678C9.36822 24.1865 9.55052 24.7825 9.50718 25.0089C9.49747 25.0623 9.45339 25.0942 9.38391 25.1165C9.28006 25.1432 9.17172 25.1588 9.06414 25.161C9.04397 25.1202 9.05891 25.1417 9.04695 25.1017C9.0208 25.0126 8.87885 24.9718 8.77799 24.9681C8.65098 24.9644 8.53816 25.0475 8.48736 25.1633C8.39845 25.3651 8.53965 25.5937 8.76603 25.5937C8.84971 25.5937 8.93787 25.5544 9.00287 25.5039C9.01707 25.5039 9.03201 25.5047 9.04621 25.5047C9.19787 25.5047 9.35029 25.4869 9.49448 25.4423C9.67977 25.3837 9.81052 25.2679 9.84787 25.072C9.90167 24.7766 9.68575 24.1235 9.36672 23.5319C9.37943 23.5008 9.38615 23.4674 9.38615 23.434C9.38615 23.3894 9.3742 23.3456 9.35178 23.3071C9.20831 23.0609 9.04064 22.8294 8.85121 22.6161C8.75034 22.5025 8.52695 22.4699 8.50379 22.3199C8.44253 21.9281 8.61287 21.4427 8.86839 21.0211C9.13437 20.6923 9.01557 20.6389 9.50195 20.4489C9.36971 20.3509 9.24419 20.2359 9.11942 20.1283C8.62782 19.7067 8.2169 19.3482 8.13845 18.4843C7.40851 18.4197 7.08948 16.9495 7.62144 16.4953C7.44661 16.3802 7.94569 13.8931 6.69724 13.5183C8.69954 11.061 10.8976 10.609 12.7393 12.1141C14.6549 12.2136 15.5783 14.9656 14.2761 16.447C14.9224 16.591 14.6803 17.6954 14.4068 18.1043C14.2477 18.3433 14.0363 18.5014 13.7912 18.4865C13.7748 19.2747 13.3863 19.6392 12.8797 20.1119C12.5562 20.4155 12.3141 20.6463 11.8763 20.8022C11.3601 20.9847 10.6929 20.981 10.1744 20.8051C9.97115 20.7361 9.71563 20.6329 9.53632 20.5224C9.45862 20.748 9.36598 20.938 9.25988 21.1005ZM13.836 23.7999C13.9015 23.7999 13.9664 23.8127 14.0269 23.8376C14.0874 23.8625 14.1424 23.8991 14.1887 23.9451C14.235 23.9912 14.2716 24.0458 14.2966 24.106C14.3216 24.1661 14.3345 24.2306 14.3344 24.2956C14.3344 24.5688 14.1117 24.7907 13.836 24.7907C13.5603 24.7907 13.337 24.5688 13.337 24.2956C13.337 24.1642 13.3895 24.0381 13.4831 23.9451C13.5767 23.8521 13.7037 23.7999 13.836 23.7999ZM11.8039 20.3962C12.1438 20.2596 12.3425 20.0592 12.598 19.818C13.0844 19.3646 13.443 19.0298 13.3743 18.2164C13.3713 18.1726 13.3825 18.1273 13.4079 18.088C13.4381 18.0434 13.4848 18.0124 13.5378 18.0019C13.5909 17.9913 13.6459 18.002 13.6911 18.0316C13.8286 18.1221 13.9653 18.0331 14.0676 17.8802C14.2036 17.6753 14.3911 17.089 14.2223 16.873C14.1745 16.8114 14.0437 16.8359 13.7934 17.0252C13.7486 17.0638 13.6881 17.0831 13.6246 17.0727C13.5981 17.0682 13.5728 17.0585 13.5501 17.0443C13.5274 17.0301 13.5078 17.0115 13.4923 16.9897C13.4768 16.968 13.4659 16.9433 13.46 16.9173C13.4541 16.8913 13.4534 16.8644 13.458 16.8381C13.6366 15.8028 13.5469 15.1608 13.319 14.7348C13.1203 14.3644 12.802 14.1462 12.4643 13.9674C11.712 14.5381 11.1822 14.6034 10.654 14.668C10.2192 14.7207 9.78511 14.7749 9.21057 15.1697C8.93862 15.3567 8.75707 15.5831 8.66517 15.8458C8.57178 16.1108 8.56506 16.421 8.64126 16.7706C8.65845 16.8322 8.64575 16.902 8.60167 16.9547C8.53069 17.0415 8.40069 17.0534 8.31402 16.9821C8.06374 16.7765 7.92103 16.7565 7.85902 16.8315C7.62443 17.1142 7.85828 18.1934 8.26994 18.0679L8.32448 18.0598C8.37855 18.0585 8.43094 18.0785 8.47015 18.1155C8.50937 18.1526 8.53221 18.2035 8.53368 18.2572C8.55385 19.1003 8.92891 19.4299 9.38615 19.821C9.68575 20.0793 9.91437 20.2886 10.3059 20.4214C10.7878 20.5847 11.3227 20.5439 11.8039 20.3962ZM10.9805 33.5611C11.9144 33.5611 12.6772 34.3078 12.6772 35.2459C12.6772 36.1744 11.9256 36.9321 10.9805 36.9321C10.0466 36.9321 9.28305 36.1862 9.28305 35.2459C9.28305 34.3196 10.0347 33.5611 10.9805 33.5611Z" fill="#38B4B3"/>
</svg>
