<svg width="20" height="21" viewBox="0 0 20 21" fill="none" xmlns="http://www.w3.org/2000/svg">
<path d="M18.2667 14.4582C17.9917 16.6748 16.175 18.4915 13.9583 18.7665C12.6167 18.9332 11.3667 18.5665 10.3917 17.8498C9.83334 17.4415 9.96667 16.5748 10.6333 16.3748C13.1417 15.6165 15.1167 13.6332 15.8833 11.1248C16.0833 10.4665 16.95 10.3332 17.3583 10.8832C18.0667 11.8665 18.4333 13.1165 18.2667 14.4582Z" fill="#B3B3B3"/>
<path d="M8.32501 2.1665C4.65001 2.1665 1.66667 5.14984 1.66667 8.82484C1.66667 12.4998 4.65001 15.4832 8.32501 15.4832C12 15.4832 14.9833 12.4998 14.9833 8.82484C14.975 5.14984 12 2.1665 8.32501 2.1665ZM7.54167 7.8915L9.55001 8.5915C10.275 8.84984 10.625 9.35817 10.625 10.1415C10.625 11.0415 9.90834 11.7832 9.03334 11.7832H8.95834V11.8248C8.95834 12.1665 8.67501 12.4498 8.33334 12.4498C7.99167 12.4498 7.70834 12.1665 7.70834 11.8248V11.7748C6.78334 11.7332 6.04167 10.9582 6.04167 9.9915C6.04167 9.64984 6.32501 9.3665 6.66667 9.3665C7.00834 9.3665 7.29167 9.64984 7.29167 9.9915C7.29167 10.2915 7.50834 10.5332 7.77501 10.5332H9.02501C9.21667 10.5332 9.36667 10.3582 9.36667 10.1415C9.36667 9.84984 9.31667 9.83317 9.12501 9.7665L7.11667 9.0665C6.40001 8.8165 6.04167 8.30817 6.04167 7.5165C6.04167 6.6165 6.75834 5.87484 7.63334 5.87484H7.70834V5.8415C7.70834 5.49984 7.99167 5.2165 8.33334 5.2165C8.67501 5.2165 8.95834 5.49984 8.95834 5.8415V5.8915C9.88334 5.93317 10.625 6.70817 10.625 7.67484C10.625 8.0165 10.3417 8.29984 10 8.29984C9.65834 8.29984 9.37501 8.0165 9.37501 7.67484C9.37501 7.37484 9.15834 7.13317 8.89167 7.13317H7.64167C7.45001 7.13317 7.30001 7.30817 7.30001 7.52484C7.29167 7.80817 7.34167 7.82484 7.54167 7.8915Z" fill="#B3B3B3"/>
</svg>
