<svg width="20" height="21" viewBox="0 0 20 21" fill="none" xmlns="http://www.w3.org/2000/svg">
<path d="M9.99999 2.1665C7.81666 2.1665 6.04166 3.9415 6.04166 6.12484C6.04166 8.2665 7.71666 9.99984 9.89999 10.0748C9.96666 10.0665 10.0333 10.0665 10.0833 10.0748C10.1 10.0748 10.1083 10.0748 10.125 10.0748C10.1333 10.0748 10.1333 10.0748 10.1417 10.0748C12.275 9.99984 13.95 8.2665 13.9583 6.12484C13.9583 3.9415 12.1833 2.1665 9.99999 2.1665Z" fill="#B3B3B3"/>
<path d="M14.2333 12.2919C11.9083 10.7419 8.11666 10.7419 5.775 12.2919C4.71666 13.0002 4.13333 13.9586 4.13333 14.9836C4.13333 16.0086 4.71666 16.9586 5.76666 17.6586C6.93333 18.4419 8.46666 18.8336 10 18.8336C11.5333 18.8336 13.0667 18.4419 14.2333 17.6586C15.2833 16.9502 15.8667 16.0002 15.8667 14.9669C15.8583 13.9419 15.2833 12.9919 14.2333 12.2919Z" fill="#B3B3B3"/>
</svg>
