<svg width="14" height="14" viewBox="0 0 14 14" fill="none" xmlns="http://www.w3.org/2000/svg">
<path d="M1.78 4.80003L4.8 1.78003C5.43333 1.1467 6.30666 0.806699 7.2 0.853366L10.5333 1.01337C11.8667 1.07337 12.9267 2.13337 12.9933 3.46003L13.1533 6.79337C13.1933 7.6867 12.86 8.56003 12.2267 9.19337L9.20666 12.2134C7.96666 13.4534 5.95333 13.4534 4.70666 12.2134L1.78 9.2867C0.53333 8.05337 0.53333 6.04003 1.78 4.80003ZM8.66666 7.25337C9.72666 7.25337 10.5867 6.39337 10.5867 5.33337C10.5867 4.27337 9.72666 3.41337 8.66666 3.41337C7.60666 3.41337 6.74666 4.27337 6.74666 5.33337C6.74666 6.39337 7.60666 7.25337 8.66666 7.25337Z" fill="#FF7988"/>
</svg>
