<svg width="16" height="16" viewBox="0 0 16 16" fill="none" xmlns="http://www.w3.org/2000/svg">
<path d="M7.66667 14.0002C11.1645 14.0002 14 11.1646 14 7.66683C14 4.16903 11.1645 1.3335 7.66667 1.3335C4.16886 1.3335 1.33333 4.16903 1.33333 7.66683C1.33333 11.1646 4.16886 14.0002 7.66667 14.0002Z" fill="#FF7988"/>
<path d="M14.2 14.6669C14.08 14.6669 13.96 14.6202 13.8733 14.5335L12.6333 13.2935C12.4533 13.1135 12.4533 12.8202 12.6333 12.6335C12.8133 12.4535 13.1067 12.4535 13.2933 12.6335L14.5333 13.8735C14.7133 14.0535 14.7133 14.3469 14.5333 14.5335C14.44 14.6202 14.32 14.6669 14.2 14.6669Z" fill="#FF7988"/>
</svg>
