<svg width="20" height="6" viewBox="0 0 20 6" fill="none" xmlns="http://www.w3.org/2000/svg">
<path d="M16.6981 5.85346C16.5992 5.94454 16.4666 5.99494 16.329 5.9938C16.1915 5.99266 16.0599 5.94007 15.9626 5.84737C15.8653 5.75467 15.8101 5.62926 15.8089 5.49816C15.8077 5.36706 15.8606 5.24076 15.9562 5.14646L17.684 3.49996H1.04938C0.910223 3.49996 0.776766 3.44728 0.678367 3.35351C0.579969 3.25975 0.524689 3.13257 0.524689 2.99996C0.524689 2.86735 0.579969 2.74017 0.678367 2.64641C0.776766 2.55264 0.910223 2.49996 1.04938 2.49996H17.684L15.9562 0.85346C15.8606 0.759158 15.8077 0.632857 15.8089 0.501759C15.8101 0.370661 15.8653 0.245254 15.9626 0.15255C16.0599 0.0598462 16.1915 0.00726163 16.329 0.00612242C16.4666 0.00498321 16.5992 0.0553806 16.6981 0.14646L19.3216 2.64646C19.4199 2.74022 19.4752 2.86738 19.4752 2.99996C19.4752 3.13254 19.4199 3.2597 19.3216 3.35346L16.6981 5.85346Z" fill="#5C5C5C"/>
</svg>
