<svg width="30" height="30" viewBox="0 0 30 30" fill="none" xmlns="http://www.w3.org/2000/svg">
<rect width="30" height="30" rx="15" fill="white"/>
<path d="M20.0625 13.2624C18.9313 13.2624 18.4688 12.4624 19.0312 11.4811C19.3563 10.9124 19.1625 10.1874 18.5938 9.8624L17.5125 9.24365C17.0188 8.9499 16.3812 9.1249 16.0875 9.61865L16.0188 9.7374C15.4563 10.7186 14.5312 10.7186 13.9625 9.7374L13.8937 9.61865C13.6125 9.1249 12.975 8.9499 12.4812 9.24365L11.4 9.8624C10.8312 10.1874 10.6375 10.9186 10.9625 11.4874C11.5312 12.4624 11.0687 13.2624 9.9375 13.2624C9.2875 13.2624 8.75 13.7936 8.75 14.4499V15.5499C8.75 16.1999 9.28125 16.7374 9.9375 16.7374C11.0687 16.7374 11.5312 17.5374 10.9625 18.5186C10.6375 19.0874 10.8312 19.8124 11.4 20.1374L12.4812 20.7561C12.975 21.0499 13.6125 20.8749 13.9062 20.3812L13.975 20.2624C14.5375 19.2811 15.4625 19.2811 16.0312 20.2624L16.1 20.3812C16.3938 20.8749 17.0313 21.0499 17.525 20.7561L18.6063 20.1374C19.175 19.8124 19.3687 19.0811 19.0437 18.5186C18.475 17.5374 18.9375 16.7374 20.0688 16.7374C20.7188 16.7374 21.2563 16.2061 21.2563 15.5499V14.4499C21.25 13.7999 20.7188 13.2624 20.0625 13.2624ZM15 17.0311C13.8812 17.0311 12.9688 16.1186 12.9688 14.9999C12.9688 13.8811 13.8812 12.9686 15 12.9686C16.1188 12.9686 17.0312 13.8811 17.0312 14.9999C17.0312 16.1186 16.1188 17.0311 15 17.0311Z" fill="#292D32"/>
</svg>
