<svg width="12" height="14" viewBox="0 0 12 14" fill="none" xmlns="http://www.w3.org/2000/svg">
<path fill-rule="evenodd" clip-rule="evenodd" d="M7.20192 2.55547C7.20192 1.32817 8.20138 0.333252 9.43425 0.333252C10.6671 0.333252 11.6666 1.32817 11.6666 2.55547C11.6666 3.78277 10.6671 4.7777 9.43425 4.7777C8.81172 4.7777 8.24912 4.52389 7.84465 4.11557L4.75438 6.21958C4.78292 6.36159 4.79792 6.50825 4.79792 6.65805C4.79792 6.95472 4.73925 7.23832 4.63298 7.49752L8.02145 9.72378C8.40605 9.41065 8.89812 9.22212 9.43425 9.22212C10.6671 9.22212 11.6666 10.2171 11.6666 11.4444C11.6666 12.6717 10.6671 13.6666 9.43425 13.6666C8.20138 13.6666 7.20192 12.6717 7.20192 11.4444C7.20192 11.1229 7.27072 10.8169 7.39438 10.5407L4.0333 8.33239C3.64122 8.67312 3.12765 8.88025 2.56557 8.88025C1.3327 8.88025 0.333252 7.88532 0.333252 6.65805C0.333252 5.43074 1.3327 4.43582 2.56557 4.43582C3.27452 4.43582 3.9056 4.76475 4.31422 5.27671L7.30918 3.23753C7.23952 3.02231 7.20192 2.79299 7.20192 2.55547Z" fill="#FF7988"/>
</svg>
