<svg width="20" height="21" viewBox="0 0 20 21" fill="none" xmlns="http://www.w3.org/2000/svg">
<path d="M13.3333 2.1665H6.66667C4.36667 2.1665 2.5 4.03317 2.5 6.33317V14.6665C2.5 16.9665 4.36667 18.8332 6.66667 18.8332H13.3333C15.6333 18.8332 17.5 16.9665 17.5 14.6665V6.33317C17.5 4.03317 15.6333 2.1665 13.3333 2.1665ZM7.38333 16.0248C7.225 16.1832 7.01667 16.2665 6.8 16.2665C6.575 16.2665 6.36667 16.1832 6.20833 16.0248C6.05 15.8665 5.95833 15.6582 5.95833 15.4332C5.95833 15.2165 6.05 14.9998 6.20833 14.8415C6.28333 14.7665 6.375 14.7082 6.475 14.6665C6.68333 14.5832 6.90833 14.5832 7.11667 14.6665C7.16667 14.6832 7.21667 14.7082 7.25833 14.7415C7.30833 14.7665 7.35 14.8082 7.38333 14.8415C7.54167 14.9998 7.63333 15.2165 7.63333 15.4332C7.63333 15.6582 7.54167 15.8665 7.38333 16.0248ZM5.95833 12.0998C5.95833 11.9915 5.98333 11.8832 6.025 11.7832C6.06667 11.6748 6.125 11.5915 6.20833 11.5082C6.4 11.3165 6.69167 11.2248 6.95833 11.2832C7.00833 11.2915 7.06667 11.3082 7.11667 11.3332C7.16667 11.3498 7.21667 11.3748 7.25833 11.4082C7.30833 11.4332 7.35 11.4748 7.38333 11.5082C7.45833 11.5915 7.525 11.6748 7.56667 11.7832C7.60833 11.8832 7.625 11.9915 7.625 12.0998C7.625 12.3248 7.54167 12.5332 7.38333 12.6915C7.225 12.8498 7.01667 12.9332 6.8 12.9332C6.68333 12.9332 6.575 12.9082 6.475 12.8665C6.375 12.8248 6.28333 12.7665 6.20833 12.6915C6.05 12.5332 5.95833 12.3248 5.95833 12.0998ZM10.7167 16.0248C10.6417 16.0998 10.55 16.1582 10.45 16.1998C10.35 16.2415 10.2417 16.2665 10.125 16.2665C9.90833 16.2665 9.7 16.1832 9.54167 16.0248C9.38333 15.8665 9.29167 15.6582 9.29167 15.4332C9.29167 15.3748 9.3 15.3248 9.30833 15.2665C9.325 15.2165 9.34167 15.1665 9.35833 15.1165C9.38333 15.0665 9.40833 15.0165 9.43333 14.9665C9.46667 14.9248 9.5 14.8832 9.54167 14.8415C9.61667 14.7665 9.70833 14.7082 9.80833 14.6665C10.1167 14.5415 10.4833 14.6082 10.7167 14.8415C10.875 14.9998 10.9583 15.2165 10.9583 15.4332C10.9583 15.6582 10.875 15.8665 10.7167 16.0248ZM10.7167 12.6915C10.5583 12.8498 10.35 12.9332 10.125 12.9332C9.90833 12.9332 9.7 12.8498 9.54167 12.6915C9.38333 12.5332 9.29167 12.3248 9.29167 12.0998C9.29167 11.8832 9.38333 11.6665 9.54167 11.5082C9.85 11.1998 10.4083 11.1998 10.7167 11.5082C10.7917 11.5915 10.8583 11.6748 10.9 11.7832C10.9417 11.8832 10.9583 11.9915 10.9583 12.0998C10.9583 12.3248 10.875 12.5332 10.7167 12.6915ZM7.5 9.2165C6.64167 9.2165 5.93333 8.5165 5.93333 7.64984V6.8165C5.93333 5.95817 6.63333 5.24984 7.5 5.24984H12.5C13.3583 5.24984 14.0667 5.94984 14.0667 6.8165V7.64984C14.0667 8.50817 13.3667 9.2165 12.5 9.2165H7.5ZM14.05 16.0248C13.8917 16.1832 13.6833 16.2665 13.4583 16.2665C13.35 16.2665 13.2417 16.2415 13.1417 16.1998C13.0417 16.1582 12.95 16.0998 12.875 16.0248C12.7167 15.8665 12.6333 15.6582 12.6333 15.4332C12.6333 15.2165 12.7167 14.9998 12.875 14.8415C13.1 14.6082 13.475 14.5415 13.7833 14.6665C13.8833 14.7082 13.975 14.7665 14.05 14.8415C14.2083 14.9998 14.2917 15.2165 14.2917 15.4332C14.2917 15.6582 14.2083 15.8665 14.05 16.0248ZM14.2333 12.4165C14.1917 12.5165 14.1333 12.6082 14.05 12.6915C13.8917 12.8498 13.6833 12.9332 13.4583 12.9332C13.2417 12.9332 13.0333 12.8498 12.875 12.6915C12.7167 12.5332 12.625 12.3248 12.625 12.0998C12.625 11.8832 12.7167 11.6665 12.875 11.5082C13.1833 11.1998 13.7417 11.1998 14.05 11.5082C14.2083 11.6665 14.3 11.8832 14.3 12.0998C14.3 12.2082 14.275 12.3165 14.2333 12.4165Z" fill="#B3B3B3"/>
</svg>
